<svg width="48" height="49" viewBox="0 0 48 49" fill="none" xmlns="http://www.w3.org/2000/svg">
<path d="M23.9999 0.230103C19.2888 0.230103 14.6834 1.62712 10.7662 4.2445C6.84908 6.86187 3.79601 10.582 1.99313 14.9345C0.190253 19.2871 -0.281463 24.0765 0.637637 28.6971C1.55674 33.3177 3.82537 37.562 7.15666 40.8933C10.4879 44.2246 14.7322 46.4933 19.3529 47.4124C23.9735 48.3316 28.7629 47.8597 33.1154 46.0569C37.468 44.2541 41.1881 41.201 43.8055 37.2837C46.4229 33.3666 47.8199 28.7612 47.8199 24.0501C47.8136 17.7345 45.3019 11.6795 40.8362 7.21384C36.3704 2.7481 30.3154 0.236456 23.9999 0.230103ZM23.9999 44.8701C19.8821 44.8701 15.8568 43.649 12.4329 41.3613C9.00914 39.0735 6.34059 35.8219 4.76477 32.0175C3.18896 28.2132 2.77665 24.027 3.57999 19.9883C4.38334 15.9496 6.36625 12.2398 9.27798 9.32814C12.1897 6.41641 15.8994 4.4335 19.9381 3.63015C23.9768 2.82681 28.163 3.23912 31.9674 4.81493C35.7717 6.39075 39.0234 9.0593 41.3111 12.4831C43.5988 15.9069 44.8199 19.9322 44.8199 24.0501C44.8136 29.5699 42.618 34.8619 38.7149 38.765C34.8117 42.6681 29.5198 44.8637 23.9999 44.8701Z" fill="black"/>
<path d="M33.876 14.9782C32.124 15.2542 30.372 15.4462 28.608 15.5782C29.2919 14.6406 29.6616 13.5107 29.664 12.3502C29.6989 11.598 29.581 10.8466 29.3172 10.1413C29.0534 9.43603 28.6494 8.7916 28.1295 8.24696C27.6096 7.70233 26.9846 7.2688 26.2923 6.9726C25.6001 6.6764 24.8549 6.52368 24.102 6.52368C23.349 6.52368 22.6039 6.6764 21.9116 6.9726C21.2194 7.2688 20.5944 7.70233 20.0745 8.24696C19.5546 8.7916 19.1505 9.43603 18.8867 10.1413C18.623 10.8466 18.505 11.598 18.54 12.3502C18.5423 13.5107 18.912 14.6406 19.596 15.5782C17.832 15.4462 16.068 15.2542 14.316 14.9782C13.595 14.838 12.8484 14.9218 12.1764 15.2182C11.5044 15.5146 10.9391 16.0095 10.5564 16.6364C10.1737 17.2633 9.99198 17.9922 10.0355 18.7254C10.079 19.4586 10.3458 20.1609 10.8 20.7381C11.0814 21.1307 11.4388 21.4626 11.8512 21.7141C12.2635 21.9656 12.7222 22.1316 13.2 22.2021C15.204 22.5261 17.28 22.7542 19.392 22.8982V24.7582L13.2 34.4902C12.94 34.8959 12.7624 35.349 12.6775 35.8234C12.5925 36.2978 12.6019 36.7842 12.7049 37.255C12.9131 38.2058 13.4905 39.035 14.31 39.5601C15.1295 40.0853 16.1241 40.2633 17.0749 40.0552C17.5457 39.9521 17.9915 39.7573 18.387 39.4819C18.7826 39.2065 19.12 38.8559 19.38 38.4501L24 31.1061L28.644 38.4501C28.9018 38.8591 29.2381 39.2129 29.6334 39.4912C30.0288 39.7695 30.4753 39.9666 30.9473 40.0714C31.4193 40.1761 31.9073 40.1862 32.3832 40.1013C32.8592 40.0163 33.3135 39.8379 33.7201 39.5764C34.1267 39.3148 34.4775 38.9753 34.7521 38.5775C35.0267 38.1796 35.2198 37.7313 35.3202 37.2584C35.4207 36.7854 35.4264 36.2973 35.3371 35.8222C35.2478 35.3471 35.0652 34.8943 34.8 34.4902L28.8 25.0461V22.8502C30.912 22.7062 32.988 22.4782 34.992 22.1542C35.9468 21.995 36.7992 21.4631 37.3618 20.6755C37.9244 19.8878 38.1511 18.9089 37.992 17.9542C37.8328 16.9994 37.3009 16.1469 36.5133 15.5843C35.7256 15.0217 34.7468 14.795 33.792 14.9542L33.876 14.9782ZM24.096 9.7821C24.6067 9.76778 25.1101 9.90612 25.5418 10.1795C25.9734 10.4528 26.3138 10.8487 26.5192 11.3165C26.7247 11.7843 26.7859 12.3028 26.6951 12.8055C26.6043 13.3083 26.3656 13.7726 26.0095 14.139C25.6533 14.5054 25.196 14.7572 24.696 14.8623C24.196 14.9673 23.676 14.9208 23.2026 14.7288C22.7291 14.5367 22.3238 14.2078 22.0383 13.7841C21.7528 13.3603 21.6002 12.8611 21.6 12.3502C21.5997 11.6814 21.8604 11.0389 22.3265 10.5593C22.7926 10.0797 23.4275 9.80085 24.096 9.7821ZM34.56 19.2502C32.1431 19.6293 29.7076 19.8777 27.264 19.9942C26.8788 20.0127 26.5155 20.1788 26.2496 20.4582C25.9836 20.7375 25.8355 21.1085 25.836 21.4942V25.4902C25.8379 25.7754 25.9211 26.0544 26.076 26.2942L32.292 36.0501C32.3386 36.1234 32.3703 36.2051 32.3852 36.2906C32.4002 36.3761 32.3981 36.4638 32.3792 36.5485C32.3602 36.6332 32.3248 36.7133 32.2748 36.7843C32.2248 36.8553 32.1613 36.9157 32.088 36.9621C31.9392 37.0531 31.7609 37.0827 31.5907 37.0446C31.4205 37.0066 31.2718 36.9038 31.176 36.7581L25.272 27.4461C25.1435 27.2414 24.9671 27.071 24.758 26.9498C24.549 26.8285 24.3135 26.76 24.072 26.7501C23.8186 26.7503 23.5694 26.8141 23.3471 26.9356C23.1248 27.0572 22.9367 27.2329 22.8 27.4461L16.8 36.8061C16.759 36.8896 16.7008 36.9634 16.6293 37.0228C16.5577 37.0822 16.4744 37.1258 16.3849 37.1508C16.2953 37.1758 16.2015 37.1815 16.1096 37.1677C16.0176 37.1539 15.9296 37.1208 15.8514 37.0706C15.7731 37.0204 15.7063 36.9542 15.6554 36.8765C15.6045 36.7987 15.5706 36.711 15.5559 36.6192C15.5412 36.5274 15.5461 36.4335 15.5703 36.3437C15.5944 36.2539 15.6372 36.1702 15.696 36.0982L22.092 26.0061C22.2487 25.7673 22.3321 25.4878 22.332 25.2021V21.4822C22.3324 21.0965 22.1843 20.7255 21.9184 20.4462C21.6525 20.1668 21.2892 20.0007 20.904 19.9822C18.4726 19.869 16.049 19.6246 13.644 19.2502C13.5577 19.2381 13.4749 19.2084 13.4006 19.163C13.3263 19.1176 13.2621 19.0574 13.212 18.9862C13.1316 18.8819 13.0849 18.7557 13.078 18.6243C13.0711 18.4929 13.1044 18.3625 13.1734 18.2504C13.2425 18.1384 13.344 18.05 13.4645 17.9971C13.585 17.9442 13.7188 17.9292 13.848 17.9542C20.6373 19.0342 27.5547 19.0342 34.344 17.9542C34.5167 17.9292 34.6925 17.9712 34.8352 18.0716C34.978 18.172 35.077 18.3231 35.112 18.4942C35.1363 18.6672 35.0923 18.8429 34.9893 18.9841C34.8862 19.1252 34.7322 19.2206 34.56 19.2502Z" fill="black"/>
</svg>
