<svg width="48" height="49" viewBox="0 0 48 49" fill="none" xmlns="http://www.w3.org/2000/svg">
<path fill-rule="evenodd" clip-rule="evenodd" d="M11.186 4.05005C12.1091 4.05005 12.8574 4.79837 12.8574 5.72148V9.06434H16.2C17.1231 9.06434 17.8714 9.81266 17.8714 10.7358C17.8714 11.6589 17.1231 12.4072 16.2 12.4072H12.8574V15.7501C12.8574 16.6732 12.1091 17.4215 11.186 17.4215C10.2629 17.4215 9.51456 16.6732 9.51456 15.7501V12.4072H6.17143C5.24832 12.4072 4.5 11.6589 4.5 10.7358C4.5 9.81266 5.24832 9.06434 6.17143 9.06434H9.51456V5.72148C9.51456 4.79837 10.2629 4.05005 11.186 4.05005ZM22.886 5.16434C21.9629 5.16434 21.2146 5.91266 21.2146 6.83577C21.2146 7.75887 21.9629 8.5072 22.886 8.5072H35.1431C37.9124 8.5072 40.1574 10.7522 40.1574 13.5215V25.7787H29.5714C27.7252 25.7787 26.2286 27.2753 26.2286 29.1215V39.7072H13.9717C11.2024 39.7072 8.95742 37.4623 8.95742 34.693V22.4358C8.95742 21.5127 8.20909 20.7644 7.28599 20.7644C6.36288 20.7644 5.61456 21.5127 5.61456 22.4358V34.693C5.61456 39.3085 9.35618 43.0501 13.9717 43.0501H26.7536C28.379 43.0501 29.9378 42.4044 31.0871 41.2551L41.7053 30.637C42.8546 29.4876 43.5003 27.9288 43.5003 26.3034V13.5215C43.5003 8.90596 39.7587 5.16434 35.1431 5.16434H22.886ZM29.5714 38.0433L38.4932 29.1215H29.5714V38.0433Z" fill="#1D1C1D"/>
</svg>
