<svg width="48" height="49" viewBox="0 0 48 49" fill="none" xmlns="http://www.w3.org/2000/svg">
<path d="M38.3997 4.64605H25.1157L26.2557 3.44605C26.5104 3.15956 26.6457 2.78644 26.634 2.40331C26.6222 2.02016 26.4642 1.65608 26.1923 1.3858C25.9205 1.11552 25.5555 0.95956 25.1724 0.949936C24.7892 0.940312 24.4169 1.07776 24.1317 1.33405L20.5317 4.93405C20.3921 5.07338 20.2812 5.23891 20.2056 5.42114C20.13 5.60338 20.091 5.79875 20.091 5.99605C20.091 6.19336 20.13 6.38872 20.2056 6.57095C20.2812 6.75319 20.3921 6.91871 20.5317 7.05805L24.1317 10.658C24.2715 10.7991 24.4379 10.9109 24.6213 10.9871C24.8046 11.0633 25.0013 11.1024 25.1997 11.102C25.3967 11.1035 25.5918 11.0649 25.7735 10.9886C25.955 10.9123 26.1191 10.7998 26.2557 10.658C26.3951 10.5197 26.5056 10.3552 26.5811 10.174C26.6565 9.99275 26.6954 9.79837 26.6954 9.60205C26.6954 9.40573 26.6565 9.21136 26.5811 9.03011C26.5056 8.84888 26.3951 8.68436 26.2557 8.54605L25.3077 7.59805H38.3997C38.9558 7.6012 39.4881 7.82347 39.8813 8.2166C40.2744 8.60975 40.4966 9.14207 40.4997 9.69805V38.4501C40.4966 39.0061 40.2744 39.5383 39.8813 39.9314C39.4881 40.3246 38.9558 40.5469 38.3997 40.55H32.3997C32.0019 40.55 31.6205 40.7081 31.3391 40.9894C31.0578 41.2706 30.8997 41.6522 30.8997 42.05C30.8997 42.4478 31.0578 42.8294 31.3391 43.1107C31.6205 43.3919 32.0019 43.55 32.3997 43.55H38.3997C39.7514 43.5469 41.0468 43.0085 42.0026 42.0527C42.9582 41.0971 43.4966 39.8017 43.4997 38.4501V9.74605C43.4966 8.39441 42.9582 7.09906 42.0026 6.1433C41.0468 5.18756 39.7514 4.64921 38.3997 4.64605Z" fill="#1D1C1D"/>
<path d="M23.832 37.3941C23.547 37.1377 23.1745 37.0003 22.7914 37.0099C22.4082 37.0195 22.0432 37.1755 21.7715 37.4458C21.4996 37.7161 21.3415 38.0802 21.3298 38.4633C21.318 38.8464 21.4533 39.2196 21.708 39.5061L22.752 40.5501H9.6C9.04401 40.5469 8.5117 40.3246 8.11856 39.9315C7.7254 39.5383 7.50315 39.006 7.5 38.4501V9.74601C7.50315 9.19002 7.7254 8.6577 8.11856 8.26457C8.5117 7.87142 9.04401 7.64916 9.6 7.64601H15.6C15.9978 7.64601 16.3794 7.48797 16.6606 7.20666C16.9419 6.92537 17.1 6.54383 17.1 6.146C17.1 5.74818 16.9419 5.36664 16.6606 5.08535C16.3794 4.80404 15.9978 4.646 15.6 4.646H9.6C8.24836 4.64918 6.95301 5.18751 5.99725 6.14327C5.0415 7.09901 4.50316 8.39438 4.5 9.74601V38.4501C4.50316 39.8017 5.0415 41.097 5.99725 42.0528C6.95301 43.0086 8.24836 43.5469 9.6 43.5501H22.8L21.756 44.5941C21.5487 44.803 21.4075 45.0684 21.3501 45.357C21.2925 45.6457 21.3213 45.9448 21.4324 46.2174C21.5437 46.4898 21.7327 46.7236 21.9759 46.8894C22.219 47.0553 22.5057 47.1459 22.8 47.1501C22.9969 47.1514 23.1921 47.1129 23.3736 47.0365C23.5552 46.9602 23.7193 46.8478 23.856 46.7061L27.456 43.1061C27.5956 42.9667 27.7065 42.8011 27.7821 42.6189C27.8577 42.4366 27.8967 42.2413 27.8967 42.0441C27.8967 41.8467 27.8577 41.6514 27.7821 41.4691C27.7065 41.2869 27.5956 41.1214 27.456 40.9821L23.832 37.3941Z" fill="#1D1C1D"/>
<path d="M22.2841 14.0779C21.9099 14.029 21.5311 14.1265 21.2271 14.3501C20.923 14.5736 20.7169 14.906 20.6521 15.2779L20.2561 18.0499H16.7281C16.3462 18.0499 15.9799 18.2015 15.7099 18.4717C15.4398 18.7417 15.2881 19.108 15.2881 19.4899C15.2881 19.8718 15.4398 20.2381 15.7099 20.5081C15.9799 20.7781 16.3462 20.9299 16.7281 20.9299H19.8361L19.0801 26.0419H15.6001C15.4008 26.0236 15.1998 26.0471 15.01 26.1109C14.8203 26.1746 14.646 26.2772 14.4981 26.4122C14.3503 26.5471 14.2321 26.7115 14.1513 26.8946C14.0705 27.0778 14.0288 27.2756 14.0288 27.4759C14.0288 27.676 14.0705 27.874 14.1513 28.0571C14.2321 28.2403 14.3503 28.4045 14.4981 28.5395C14.646 28.6744 14.8203 28.7771 15.01 28.8409C15.1998 28.9046 15.4008 28.9282 15.6001 28.9099H18.6241L18.1561 32.4499C18.1041 32.8246 18.2004 33.2048 18.4245 33.5096C18.6486 33.8144 18.9829 34.0198 19.3561 34.0819H19.5721C19.9117 34.081 20.2401 33.9601 20.4993 33.7405C20.7583 33.5209 20.9314 33.2167 20.9881 32.8819L21.6001 28.9099H25.3921L24.8401 32.4499C24.7881 32.8246 24.8844 33.2048 25.1085 33.5096C25.3326 33.8144 25.6669 34.0198 26.0401 34.0819H26.2561C26.5957 34.081 26.9241 33.9601 27.1833 33.7405C27.4423 33.5209 27.6154 33.2167 27.6721 32.8819L28.2481 28.9819H31.2601C31.6177 28.9492 31.9503 28.7839 32.1924 28.5185C32.4346 28.2532 32.5687 27.907 32.5687 27.5479C32.5687 27.1886 32.4346 26.8424 32.1924 26.5772C31.9503 26.3119 31.6177 26.1466 31.2601 26.1139H28.6801L29.4241 21.0019H32.4001C32.7916 21.0019 33.1669 20.8463 33.4438 20.5696C33.7206 20.2927 33.8762 19.9174 33.8762 19.5259C33.8762 19.1344 33.7206 18.7589 33.4438 18.4822C33.1669 18.2054 32.7916 18.0499 32.4001 18.0499H29.8801L30.2281 15.7099C30.2802 15.3352 30.1839 14.9549 29.9598 14.6501C29.7355 14.3452 29.4013 14.14 29.0281 14.0779C28.6548 14.0261 28.276 14.1227 27.973 14.3471C27.6702 14.5715 27.4674 14.9056 27.4081 15.2779L26.9401 18.0499H23.1601L23.4961 15.7099C23.551 15.3328 23.4544 14.9494 23.2272 14.6435C23.0001 14.3376 22.6609 14.1342 22.2841 14.0779ZM26.5201 20.9299L25.7761 26.0419H21.9841L22.8001 20.9299H26.5201Z" fill="#1D1C1D"/>
</svg>
