<svg width="48" height="49" viewBox="0 0 48 49" fill="none" xmlns="http://www.w3.org/2000/svg">
<path fill-rule="evenodd" clip-rule="evenodd" d="M12.859 12.851C9.89262 15.6925 8.10083 19.3722 8.10083 22.8501V26.8082C9.75757 25.282 11.97 24.35 14.4001 24.35H14.7501C17.0421 24.35 18.9001 26.208 18.9001 28.5V38.8C18.9001 41.092 17.0421 42.95 14.7501 42.95H14.4001C9.26385 42.95 5.1001 38.7862 5.1001 33.65C5.1001 33.6106 5.10034 33.5713 5.10083 33.532V22.8501C5.10083 18.3751 7.36985 13.9548 10.7838 10.6845C14.2085 7.40413 18.9171 5.15015 24.0008 5.15015C29.0845 5.15015 33.7932 7.40413 37.2178 10.6845C40.6318 13.9548 42.9008 18.3751 42.9008 22.8501V33.6066L42.9009 33.65C42.9009 38.7862 38.7372 42.95 33.6009 42.95H33.2509C30.959 42.95 29.1009 41.092 29.1009 38.8V28.5C29.1009 26.208 30.959 24.35 33.2509 24.35H33.6009C36.0313 24.35 38.244 25.2823 39.9008 26.8088V22.8501C39.9008 19.3722 38.109 15.6925 35.1426 12.851C32.1869 10.0197 28.1955 8.15015 24.0008 8.15015C19.8062 8.15015 15.8148 10.0197 12.859 12.851ZM8.1001 33.6501C8.10016 37.1294 10.9207 39.95 14.4001 39.95H14.7501C15.3852 39.95 15.9001 39.4351 15.9001 38.8V28.5C15.9001 27.8649 15.3852 27.35 14.7501 27.35H14.4001C10.9531 27.35 8.15273 30.1183 8.10083 33.5529L8.1001 33.6501ZM39.9008 33.6501V33.6143C39.8816 30.1513 37.0684 27.35 33.6009 27.35H33.2509C32.6158 27.35 32.1009 27.8649 32.1009 28.5V38.8C32.1009 39.4351 32.6158 39.95 33.2509 39.95H33.6009C37.0803 39.95 39.9008 37.1294 39.9008 33.6501Z" fill="#1D1C1D"/>
</svg>

