<svg width="48" height="49" viewBox="0 0 48 49" fill="none" xmlns="http://www.w3.org/2000/svg">
<path d="M42.0001 13.346H29.9161V10.154C29.9161 8.80134 29.3788 7.50414 28.4224 6.5477C27.4659 5.59127 26.1687 5.05396 24.8162 5.05396H6.00015C4.64851 5.05712 3.35314 5.59545 2.3974 6.55121C1.44165 7.50695 0.903314 8.80232 0.900146 10.154V26.0779C0.900146 27.4306 1.43747 28.7278 2.39389 29.6842C3.35034 30.6406 4.64754 31.1779 6.00015 31.1779H7.92015V35.3059C7.91979 35.5924 8.0008 35.873 8.15376 36.1153C8.30673 36.3574 8.52534 36.5512 8.78415 36.6739C9.0462 36.7889 9.33483 36.8296 9.61843 36.7915C9.90204 36.7534 10.1697 36.638 10.3921 36.4579L16.7041 31.1779H18.0842V34.3579C18.0842 35.7137 18.6228 37.0139 19.5815 37.9727C20.5401 38.9314 21.8403 39.4699 23.1961 39.4699H31.2962L37.6082 44.7619C37.8824 44.9866 38.2257 45.1096 38.5802 45.1099C38.8002 45.1096 39.0174 45.0604 39.2161 44.9659C39.4731 44.8441 39.6905 44.6522 39.8433 44.4122C39.9962 44.1724 40.0782 43.8943 40.0802 43.6099V39.4699H42.0001C43.3527 39.4699 44.6499 38.9326 45.6065 37.9762C46.5629 37.0198 47.1002 35.7226 47.1002 34.3699V18.4459C47.097 17.0944 46.5586 15.799 45.6028 14.8432C44.6472 13.8875 43.3518 13.3491 42.0001 13.346ZM16.1521 28.1779C15.8024 28.1839 15.4646 28.3063 15.1922 28.5259L10.9201 32.1259V29.7259C10.9201 29.3281 10.7621 28.9466 10.4808 28.6652C10.1995 28.384 9.81796 28.2259 9.42015 28.2259H6.00015C5.44318 28.2259 4.90905 28.0046 4.51522 27.6109C4.1214 27.217 3.90015 26.6828 3.90015 26.1259V10.154C3.9033 9.59796 4.12555 9.06566 4.5187 8.67251C4.91185 8.27936 5.44416 8.0571 6.00015 8.05395H24.8162C25.3731 8.05395 25.9073 8.2752 26.301 8.66903C26.6949 9.06285 26.9161 9.59699 26.9161 10.154V26.0659C26.9161 26.3432 26.8616 26.6179 26.7554 26.8742C26.6493 27.1304 26.4936 27.3632 26.2976 27.5593C26.1015 27.7555 25.8685 27.911 25.6124 28.0172C25.3561 28.1233 25.0815 28.1779 24.8041 28.1779H16.1521ZM44.1002 34.3699C44.1002 34.9268 43.8789 35.461 43.485 35.8549C43.0913 36.2486 42.5571 36.4699 42.0001 36.4699H38.5802C38.1824 36.4699 37.8008 36.628 37.5195 36.9092C37.2383 37.1906 37.0802 37.5721 37.0802 37.9699V40.3699L32.8082 36.7699C32.5409 36.5399 32.2006 36.4124 31.8481 36.4099H23.1961C22.636 36.4099 22.0988 36.1874 21.7028 35.7913C21.3066 35.3953 21.0842 34.8581 21.0842 34.2979V31.1779H24.8162C26.1687 31.1779 27.4659 30.6406 28.4224 29.6842C29.3788 28.7278 29.9161 27.4306 29.9161 26.0779V16.3579H42.0001C42.5562 16.361 43.0884 16.5833 43.4815 16.9765C43.8747 17.3696 44.097 17.902 44.1002 18.4579V34.3699Z" fill="#1D1C1D"/>
<path d="M9.16803 16.3219C8.854 16.3289 8.54905 16.4285 8.29137 16.6082C8.03368 16.7878 7.83474 17.0395 7.71943 17.3317C7.60414 17.6239 7.57762 17.9435 7.64322 18.2507C7.7088 18.5579 7.86357 18.8389 8.08815 19.0585C8.31271 19.2781 8.5971 19.4266 8.90568 19.4854C9.21424 19.544 9.53328 19.5104 9.82282 19.3886C10.1124 19.2668 10.3595 19.0624 10.5334 18.8008C10.7072 18.539 10.8 18.232 10.8 17.9179C10.8017 17.7047 10.7604 17.4935 10.6786 17.2967C10.5967 17.0999 10.476 16.9217 10.3236 16.7726C10.1712 16.6237 9.99033 16.507 9.79176 16.4294C9.5932 16.352 9.38106 16.3154 9.16803 16.3219Z" fill="#1D1C1D"/>
<path d="M15.444 16.3219C15.1288 16.3243 14.8215 16.42 14.5606 16.5967C14.2997 16.7736 14.097 17.0236 13.9781 17.3155C13.8591 17.6073 13.8292 17.9278 13.8921 18.2367C13.9551 18.5454 14.108 18.8287 14.3317 19.0507C14.5554 19.2727 14.8398 19.4235 15.1489 19.4841C15.4582 19.5447 15.7785 19.5124 16.0695 19.3914C16.3603 19.2702 16.609 19.0656 16.7838 18.8034C16.9587 18.5412 17.052 18.2331 17.052 17.9179C17.052 17.7073 17.0103 17.4988 16.9293 17.3044C16.8484 17.11 16.7298 16.9335 16.5802 16.7851C16.4308 16.6368 16.2534 16.5195 16.0584 16.44C15.8634 16.3605 15.6546 16.3204 15.444 16.3219Z" fill="#1D1C1D"/>
<path d="M21.7322 19.5139C22.0478 19.5139 22.3565 19.4203 22.6188 19.2449C22.8813 19.0696 23.0859 18.8203 23.2067 18.5287C23.3274 18.2371 23.3591 17.9161 23.2976 17.6065C23.2359 17.2969 23.084 17.0125 22.8608 16.7893C22.6376 16.5661 22.3532 16.4141 22.0436 16.3525C21.734 16.291 21.413 16.3226 21.1214 16.4434C20.8298 16.5641 20.5805 16.7687 20.4051 17.0312C20.2298 17.2936 20.1362 17.6023 20.1362 17.9179C20.1345 18.1279 20.1747 18.3362 20.2544 18.5305C20.334 18.7249 20.4516 18.9014 20.6001 19.0499C20.7486 19.1984 20.9252 19.316 21.1196 19.3957C21.3138 19.4753 21.5222 19.5155 21.7322 19.5139Z" fill="#1D1C1D"/>
</svg>
